# xmcd CD database file
#
# Track frame offsets:
#	150
#	17520
#	30014
#	43589
#	56425
#	69651
#	86308
#	101803
#	114482
#	130368
#	144391
#	158123
#
# Disc length: 2287 seconds
#
# Revision: 0
# Processed by: cddbd v1.5.2PL0 Copyright (c) Steve Scherf et al.
# Submitted via: CDex 1.70beta2
#
DISCID=9108ed0c
DTITLE=LeBlanc, Bernie - Cdn. - Snow In Heaves
DYEAR=1900
DGENRE=Country
TTITLE0=Snow In Heaven
TTITLE1=Bouquet of Roses
TTITLE2=Let's All Go Down To the River
TTITLE3=It Makes no Diffrerence Now
TTITLE4=Daddy At Home
TTITLE5=Cour De Loi
TTITLE6=Memories of Mama
TTITLE7=Second Fiddle
TTITLE8=I Saw the Light
TTITLE9=I Love You Because
TTITLE10=May You Never Be Alone Like Me
TTITLE11=Tu Es Mienne
EXTD=
EXTT0=
EXTT1=
EXTT2=
EXTT3=
EXTT4=
EXTT5=
EXTT6=
EXTT7=
EXTT8=
EXTT9=
EXTT10=
EXTT11=
PLAYORDER=
